HIERARCHY
ROOT Hips
{
	OFFSET	0.000000	0.000000	0.000000
	CHANNELS 6 Xposition Yposition Zposition Zrotation Xrotation Yrotation
	JOINT LeftUpLeg
	{
		OFFSET	12.811937	-7.635976	0.557276
		CHANNELS 3 Zrotation Xrotation Yrotation
		JOINT LeftLeg
		{
			OFFSET	-0.429270	-42.206159	-1.204951
			CHANNELS 3 Zrotation Xrotation Yrotation
			JOINT LeftFoot
			{
				OFFSET	-2.112259	-42.464481	-3.973220
				CHANNELS 3 Zrotation Xrotation Yrotation
				JOINT LeftFootHeel
				{
					OFFSET	0.387196	-5.329707	-3.419729
					CHANNELS 3 Zrotation Xrotation Yrotation
					End Site
					{
						OFFSET	0.327567	-0.000003	16.505428
					}
				}
			}
		}
	}
	JOINT RightUpLeg
	{
		OFFSET	-12.811937	-7.635976	0.557276
		CHANNELS 3 Zrotation Xrotation Yrotation
		JOINT RightLeg
		{
			OFFSET	0.429270	-42.206159	-1.204951
			CHANNELS 3 Zrotation Xrotation Yrotation
			JOINT RightFoot
			{
				OFFSET	2.112259	-42.464481	-3.973220
				CHANNELS 3 Zrotation Xrotation Yrotation
				JOINT RightFootHeel
				{
					OFFSET	-0.387198	-5.329707	-3.419729
					CHANNELS 3 Zrotation Xrotation Yrotation
					End Site
					{
						OFFSET	-0.327566	-0.000003	16.505428
					}
				}
			}
		}
	}
	JOINT Spine
	{
		OFFSET	0.000000	13.731315	-1.007646
		CHANNELS 3 Zrotation Xrotation Yrotation
		JOINT Spine1
		{
			OFFSET	0.000000	12.091746	-0.604589
			CHANNELS 3 Zrotation Xrotation Yrotation
			JOINT LeftShoulder
			{
				OFFSET	5.746115	20.990027	-0.833816
				CHANNELS 3 Zrotation Xrotation Yrotation
				JOINT LeftArm
				{
					OFFSET	10.881538	-1.359258	0.219250
					CHANNELS 3 Zrotation Xrotation Yrotation
					JOINT LeftForeArm
					{
						OFFSET	4.390314	-31.537147	0.202818
						CHANNELS 3 Zrotation Xrotation Yrotation
						JOINT LeftHand
						{
							OFFSET	3.168650	-24.865023	5.373370
							CHANNELS 3 Zrotation Xrotation Yrotation
							End Site
							{
								OFFSET	1.457528	-10.806075	2.170267
							}
						}
					}
				}
			}
			JOINT RightShoulder
			{
				OFFSET	-5.746115	20.990027	-0.833816
				CHANNELS 3 Zrotation Xrotation Yrotation
				JOINT RightArm
				{
					OFFSET	-10.881538	-1.359258	0.219250
					CHANNELS 3 Zrotation Xrotation Yrotation
					JOINT RightForeArm
					{
						OFFSET	-4.390314	-31.537147	0.202818
						CHANNELS 3 Zrotation Xrotation Yrotation
						JOINT RightHand
						{
							OFFSET	-3.168650	-24.865023	5.373370
							CHANNELS 3 Zrotation Xrotation Yrotation
							End Site
							{
								OFFSET	-1.457528	-10.806075	2.170267
							}
						}
					}
				}
			}
			JOINT Neck
			{
				OFFSET	0.000000	27.075639	0.680489
				CHANNELS 3 Zrotation Xrotation Yrotation
				JOINT Head
				{
					OFFSET	0.000000	12.391287	1.239129
					CHANNELS 3 Zrotation Xrotation Yrotation
					End Site
					{
						OFFSET	0.000000	13.818691	-0.105853
					}
				}
			}
		}
	}
}
MOTION
Frames:    8
Frame Time: 0.016667
-5.250294	100.450815	5.874372	-4.717681	2.245961	-15.838597	9.125866	6.959010	17.483545	5.020814	1.249389	16.025852	-66.267242	10.689104	-19.189781	0.	0.	0.	-4.150546	-3.980407	1.061129	1.337696	-0.841312	2.513338	66.978592	33.241898	10.656994	0.	0.	0.	-3.569788	-9.155336	-2.823354	1.080894	9.308269	-10.465292	-0.007750	5.992938	11.155283	-4.560637	10.555805	-15.743289	-2.478557	6.865349	-8.620604	-5.131653	-4.371561	-20.643644	0.600966	3.756516	13.361370	8.831903	14.781369	15.773103	5.243178	3.960308	30.463968	6.928944	-15.228169	24.270557	6.335956	14.353476	7.636467	35.710945	-1.843480	-7.579626	
-5.245163	100.450253	5.897369	-4.712880	2.264898	-15.616891	9.137486	6.872777	17.435574	4.980733	1.180198	16.181084	-66.177147	11.010910	-19.258364	0.	0.	0.	-4.159362	-3.934589	0.927927	1.310411	-0.849563	2.433016	66.961357	33.213448	10.711435	0.	0.	0.	-3.524208	-9.454780	-2.537570	1.070576	9.588463	-10.975813	-0.007749	5.992937	11.155282	-4.733860	10.525184	-15.348681	-2.477245	6.863930	-8.615354	-5.128435	-4.357158	-20.703953	0.330439	3.671174	14.309156	8.860105	14.759723	15.728066	5.728403	3.656616	29.706194	6.928934	-15.228171	24.270554	6.335956	14.353476	7.636466	35.603333	-1.517000	-7.518442	
-5.180872	100.439866	5.971997	-4.699302	2.345224	-14.663226	9.247051	6.490428	17.207853	4.991328	1.224782	15.688016	-66.132225	11.228342	-19.306099	0.	0.	0.	-4.220649	-3.767949	0.450866	1.226340	-0.869563	2.134704	66.908028	32.954384	10.884767	0.	0.	0.	-3.581463	-9.739949	-2.969277	0.804806	9.818880	-10.430819	0.134515	5.987976	10.760746	-5.072306	10.451571	-14.298745	-2.457788	6.832099	-8.666840	-5.187088	-4.299716	-20.873642	0.453634	3.672582	13.920786	8.880984	14.703045	15.710248	5.453826	3.806991	30.206758	6.903302	-15.061646	24.319221	6.117071	14.812604	7.841102	35.775200	-1.341713	-7.794384	
-5.152592	100.438868	5.916431	-4.694383	2.372084	-14.147282	9.329372	6.274104	17.105984	4.950006	1.262224	15.462208	-66.085289	11.415833	-19.341410	0.	0.	0.	-4.265872	-3.685669	0.246703	1.234398	-0.947632	1.821713	66.869682	32.940758	10.923376	0.	0.	0.	-3.555916	-9.966036	-2.933254	0.655022	10.035050	-10.398018	-0.187848	5.857441	11.921509	-4.562160	10.551426	-15.159242	-2.445470	6.810577	-8.694589	-5.234047	-4.303382	-20.927912	0.436752	3.638778	14.025868	9.229514	14.609392	15.035217	5.124107	3.962475	30.788778	6.894020	-15.033622	24.327374	6.001741	15.026618	7.912360	35.851563	-1.268196	-7.914894	
-5.115538	100.427318	6.033511	-4.695034	2.338884	-13.605026	9.402133	6.086479	16.983572	4.907107	1.317636	15.136230	-66.032257	11.526845	-19.341225	0.	0.	0.	-4.317732	-3.551518	0.060775	1.192843	-0.777027	1.735460	66.789726	32.584450	11.106390	0.	0.	0.	-3.531399	-10.128887	-2.902464	0.552761	10.287100	-10.363323	-0.241183	5.784473	12.064700	-4.553816	10.513268	-15.046463	-2.441034	6.805359	-8.705431	-5.263334	-4.344781	-20.979021	0.375519	3.569191	14.132619	9.087688	14.546036	15.363230	5.305113	3.854245	30.496813	6.858638	-15.001280	24.335436	5.830220	15.188166	7.997640	35.918728	-1.207212	-8.049121	
-5.110570	100.415265	6.215464	-4.695034	2.338884	-13.605026	9.402133	6.086479	16.983572	4.825508	1.272836	15.157592	-65.944275	11.553599	-19.328886	0.	0.	0.	-4.317732	-3.551518	0.060775	1.161485	-0.557132	2.091756	66.774208	32.169628	11.180190	0.	0.	0.	-3.531399	-10.128887	-2.902464	0.552761	10.287100	-10.363323	-0.241183	5.784473	12.064700	-4.553816	10.513268	-15.046463	-2.441034	6.805359	-8.705431	-5.263334	-4.344781	-20.979021	0.205462	3.535079	14.866572	9.444590	14.420199	14.627394	5.305112	3.854243	30.496815	6.858634	-15.001280	24.335436	5.830220	15.188166	7.997640	35.918728	-1.207212	-8.049121	
-5.067631	100.434605	6.001258	-4.635189	2.203653	-12.449828	9.474249	5.744115	16.619431	4.795485	1.425817	14.323211	-65.874580	11.559956	-19.283804	0.	0.	0.	-4.460775	-3.261437	-0.169947	1.138026	-0.659053	1.177959	66.650581	32.124245	11.305127	0.	0.	0.	-3.496367	-10.435667	-2.829589	0.250751	10.889725	-10.294733	-0.278220	5.579986	12.336864	-4.548691	10.425426	-14.888370	-2.398515	6.800451	-8.712541	-5.395730	-4.448593	-20.938776	0.306544	3.395236	14.380405	9.115060	14.455070	15.371034	5.366571	3.714677	30.468668	6.695835	-14.995865	24.322632	5.488710	15.276012	8.249295	35.999615	-1.023496	-8.434767	
-5.037168	100.434420	6.055144	-4.592269	2.107206	-11.847140	9.491319	5.594873	16.385847	4.735742	1.480500	13.885221	-65.797310	11.515512	-19.254948	0.	0.	0.	-4.521813	-3.122247	-0.206699	1.060074	-0.445354	1.154313	66.606613	31.512995	11.383928	0.	0.	0.	-3.470016	-10.560353	-2.782566	0.074341	11.213273	-10.245314	-0.270704	5.449454	12.448388	-4.549954	10.382463	-14.841593	-2.391702	6.794713	-8.703465	-5.454051	-4.457665	-20.845201	0.288432	3.295344	14.494157	8.954341	14.462732	15.878001	5.567811	3.526199	29.995920	6.672414	-15.009380	24.276314	5.335158	15.263130	8.386275	35.958561	-0.958765	-8.642893	
